# xmcd
#
# Track frame offsets: 
#        150
#        13123
#        28022
#        46135
#        63527
#        80539
#        99239
#        115885
#        136848
#        152823
#        171313
#        186639
#        206438
#        229739
#        250014
#        269280
#        288978
#        305145
#
# Disc length: 4365 seconds
#
# Revision: 0
# Processed by: cddbd v1.5.1PL0 Copyright (c) Steve Scherf et al.
# Submitted via: ExactAudioCopy v0.95a3
#
DISCID=fc110b12
DTITLE=Various Artist - Hit Courier RadioPress 31
DYEAR=2001
DGENRE=Pop
TTITLE0=Барон - Дуба-Дуба
TTITLE1=Шао? Бао! - Ламбада Бао
TTITLE2=Ксения - Радуга
TTITLE3=Суханов Павлович - Белые Брюки
TTITLE4=Платина - Кракодила
TTITLE5=Тина Раш - Я К Тебе Волной
TTITLE6=Грассмейстер - Полный Вперёд
TTITLE7=Эрика - Крылья Любви
TTITLE8=Игорь Котов - Сочи
TTITLE9=Оксана Хожай - Да Или Нет
TTITLE10=Варвара - Варвара
TTITLE11=Сергей Волощук - Корабельная
TTITLE12=Сергей Волощук - Не Исчезай
TTITLE13=Сергей Волощук - Молитва
TTITLE14=Сергей Волощук - Разозлись
TTITLE15=Сергей Волощук - Прощай, Мадам
TTITLE16=Фанки - Голос Твой
TTITLE17=Китти Льюис - Одуванчики Нового Лета
EXTD=
EXTT0=
EXTT1=
EXTT2=
EXTT3=
EXTT4=
EXTT5=
EXTT6=
EXTT7=
EXTT8=
EXTT9=
EXTT10=
EXTT11=
EXTT12=
EXTT13=
EXTT14=
EXTT15=
EXTT16=
EXTT17=
PLAYORDER=
